<?xml version="1.0" encoding="UTF-8"?>
<!DOCTYPE svg PUBLIC "-//W3C//DTD SVG 1.1//EN" "http://www.w3.org/Graphics/SVG/1.1/DTD/svg11.dtd">
<!-- Creator: CorelDRAW -->
<svg xmlns="http://www.w3.org/2000/svg" xml:space="preserve" width="0.316661in" height="0.316661in" style="shape-rendering:geometricPrecision; text-rendering:geometricPrecision; image-rendering:optimizeQuality; fill-rule:evenodd; clip-rule:evenodd"
viewBox="0 0 0.0878914 0.0878914"
 xmlns:xlink="http://www.w3.org/1999/xlink">
 <defs>
  <style type="text/css">
   <![CDATA[
    .fil2 {fill:none}
    .fil0 {fill:#004CD2}
    .fil1 {fill:#FFD712}
   ]]>
  </style>
 </defs>
 <g id="Layer_x0020_1">
  <metadata id="CorelCorpID_0Corel-Layer"/>
  <g id="_437543008">
   <g>
    <path id="_541719088" class="fil0" d="M0.0609313 0.0310568c0.000387924,0 0.000704819,-0.000320173 0.000704819,-0.000708097l0 -0.00491406c0,-0.00190902 -0.00158229,-0.00346181 -0.00353065,-0.00346181l-0.028349 0c-0.00196366,0 -0.00350115,0.00152219 -0.00350115,0.0034629l0 0.0313628c0,0.00195601 0.00157027,0.00354813 0.00350115,0.00354813l0.00689302 -1.09274e-006 0 0.00486707c0,0.000248052 0.000122387,0.00047425 0.000325637,0.00059773 0.000208714,0.000131129 0.000467694,0.000138778 0.000682964,3.05968e-005l0.0034334 -0.00171561 0.00343012 0.00171561c0.000102718,5.46371e-005 0.000209807,7.75847e-005 0.000310339,7.75847e-005 0.000131129,0 0.000254609,-3.93387e-005 0.000372625,-0.000109274 0.000209807,-0.00012348 0.000332194,-0.000348585 0.000332194,-0.00059773l0 -0.00486707 0.0125676 -2.29476e-005c0.00194836,0 0.00353065,-0.00158338 0.00353065,-0.00352519l0 -0.00492062c0,-0.000387924 -0.000316895,-0.000699355 -0.000704819,-0.000699355l-0.00491406 0 0 -0.0201196 0.00491515 0zm-0.00491406 -0.00557299c0,-0.00115612 0.000940851,-0.00209588 0.00209697,-0.00210462 0.00116268,0 0.00211883,0.00092446 0.00211883,0.00205654l0 0.0042158 -0.0042158 0 0 -0.00416772zm-0.0118858 0.0385978l-0.00272311 -0.00136811c-0.000204343,-9.17904e-005 -0.000434911,-9.17904e-005 -0.000631605,0l-0.00272858 0.00136811 0 -0.00829173c0.000937573,0.000520145 0.00198661,0.000799887 0.0030717,0.000799887 0.00106433,0 0.00209588,-0.000264444 0.0030116,-0.000760549l0 0.00825239zm0.000372625 -0.0102488c-0.000100532,5.46371e-005 -0.000184673,0.000133315 -0.000248052,0.000217456 -0.000874194,0.000729952 -0.0019877,0.00113427 -0.00313398,0.00113427 -0.0012195,0 -0.00238327,-0.00045021 -0.00329462,-0.0012654 -0.00103155,-0.000932109 -0.00162054,-0.00225979 -0.00162054,-0.00364102 0,-0.00271656 0.00221171,-0.00491406 0.00491515,-0.00491406 0.00270782,0 0.00491406,0.0021975 0.00491406,0.00491406 0,0.00134189 -0.000550742,0.00263132 -0.00153202,0.00355469zm0.00103373 0.00510857l0 -0.00415242c0.00121076,-0.00118672 0.00190356,-0.00280944 0.00190356,-0.00451084 0,-0.00348476 -0.00283239,-0.00631933 -0.00631933,-0.00631933 -0.00347929,0 -0.00631059,0.00283457 -0.00631059,0.00631933 0,0.00166206 0.000657831,0.00326839 0.00183799,0.00444855l0 0.00422345 -0.00689302 -1.09274e-006c-0.00115721,0 -0.00209916,-0.000970355 -0.00209916,-0.00215052l0 -0.0313628c0,-0.00115503 0.000925553,-0.00205654 0.00209916,-0.00205654l0.0255647 0c-0.000441468,0.000590081 -0.000707004,0.00131348 -0.000707004,0.00210462l0 0.0313158c0,0.000799887 0.000271,0.00153749 0.000713561,0.00212757l-0.00978988 1.42056e-005zm0.0146963 -0.00635867l0 0.0042158c0,0.00114956 -0.000969262,0.00211992 -0.00212866,0.00212757 -0.00114738,-7.6492e-006 -0.00208823,-0.000961613 -0.00208823,-0.00212757l0 -0.0042158 0.00421689 0z"/>
    <path id="_310209800" class="fil1" d="M0.0441315 0.0558293l0 0.00825239 -0.00272311 -0.00136811c-0.000204343,-9.17904e-005 -0.000434911,-9.17904e-005 -0.000631605,0l-0.00272858 0.00136811 0 -0.00829173c0.000937573,0.000520145 0.00198661,0.000799887 0.0030717,0.000799887 0.00106542,0 0.00209807,-0.000264444 0.0030116,-0.000760549z"/>
    <path id="_420545640" class="fil1" d="M0.0411221 0.0453641c-0.00270344,0 -0.00491515,0.0021975 -0.00491515,0.00491406 0,0.00138232 0.000588988,0.00270891 0.00162054,0.00364102 0.000910254,0.000815186 0.00207512,0.0012654 0.00329462,0.0012654 0.00114738,0 0.0022587,-0.000404315 0.00313398,-0.00113427 6.22863e-005,-8.52339e-005 0.00014752,-0.000162819 0.000248052,-0.000217456 0.000981283,-0.000923367 0.00153202,-0.0022128 0.00153202,-0.00355578 0,-0.00271546 -0.00220625,-0.00491297 -0.00491406,-0.00491297zm0 0.00842286c-0.00193525,0 -0.00350989,-0.00157573 -0.00350989,-0.00350989 0,-0.00193962 0.00157464,-0.00351644 0.00350989,-0.00351644 0.00194071,0 0.0035077,0.00157683 0.0035077,0.00351644 -1.09274e-006,0.00193415 -0.00156699,0.00350989 -0.0035077,0.00350989z"/>
    <path id="_420545736" class="fil0" d="M0.0411221 0.0467606c-0.00193525,0 -0.00350989,0.00157683 -0.00350989,0.00351644 0,0.00193306 0.00157464,0.00350989 0.00350989,0.00350989 0.00194071,0 0.0035077,-0.00157573 0.0035077,-0.00350989 -1.09274e-006,-0.00193852 -0.00156699,-0.00351644 -0.0035077,-0.00351644zm0 0.00562216c-0.00115721,0 -0.00210353,-0.0009485 -0.00210353,-0.00210571 0,-0.00116377 0.000946315,-0.00211009 0.00210353,-0.00211009 0.00116268,0 0.00210899,0.000946315 0.00210899,0.00211009 1.09274e-006,0.00115831 -0.000946315,0.00210571 -0.00210899,0.00210571z"/>
    <path id="_340371864" class="fil0" d="M0.0504956 0.0362015l-0.0187176 0c-0.000384645,0 -0.000701541,0.00031471 -0.000701541,0.000704819 0,0.000386831 0.000316895,0.000701541 0.000701541,0.000701541l0.0187176 0c0.000389016,0 0.000702633,-0.00031471 0.000702633,-0.000701541 -1.09274e-006,-0.000389016 -0.000313617,-0.000704819 -0.000702633,-0.000704819l0 0zm0 0z"/>
    <path id="_340371960" class="fil0" d="M0.0476884 0.0390109l-0.0131009 0c-0.000386831,0 -0.000702633,0.00031471 -0.000702633,0.000701541 0,0.000387924 0.000315803,0.000702633 0.000702633,0.000702633l0.0131009 0c0.000390109,0 0.000702633,-0.00031471 0.000702633,-0.000702633 0,-0.000386831 -0.000312524,-0.000701541 -0.000702633,-0.000701541l0 0zm0 0z"/>
    <path id="_380146896" class="fil0" d="M0.0504956 0.0333953l-0.00280725 0c-0.000387924,0 -0.000701541,0.00031471 -0.000701541,0.000702633 0,0.000386831 0.000313617,0.000701541 0.000701541,0.000701541l0.00280725 0c0.000389016,0 0.000702633,-0.00031471 0.000702633,-0.000701541 -1.09274e-006,-0.000389016 -0.000313617,-0.000702633 -0.000702633,-0.000702633l0 0zm0 0z"/>
    <path id="_380146992" class="fil0" d="M0.031778 0.0347984l0.0131042 0c0.000385738,0 0.000701541,-0.00031471 0.000701541,-0.000701541 0,-0.000387924 -0.000315803,-0.000702633 -0.000701541,-0.000702633l-0.0131042 0c-0.000384645,0 -0.000701541,0.00031471 -0.000701541,0.000702633 0,0.000387924 0.000316895,0.000701541 0.000701541,0.000701541l0 0zm0 0z"/>
    <path id="_353426288" class="fil0" d="M0.0341405 0.0309224c0.000128944,0.000101625 0.000280835,0.000149706 0.000432726,0.000149706 0.000207621,0 0.000415242,-9.50686e-005 0.000552928,-0.000272093l0.00162928 -0.00209479 0.00163146 0.00209479c0.000132222,0.000170468 0.000336565,0.000272093 0.00055402,0.000272093 0.000217456,0 0.000419613,-0.000101625 0.000552928,-0.000272093l0.00163365 -0.00209479 0.00162709 0.00209479c0.000133315,0.000170468 0.000340936,0.000272093 0.000556206,0.000272093 0.000217456,0 0.000421799,-0.000101625 0.000555113,-0.000272093l0.00162819 -0.00209479 0.00163037 0.00209479c0.000238218,0.000304875 0.000681871,0.000360605 0.000984561,0.000122387 0.000308153,-0.000237125 0.000361698,-0.0006775 0.000125665,-0.000983468l-0.00218548 -0.00280725c-0.000134407,-0.000172653 -0.000339843,-0.000272093 -0.000557299,-0.000272093 -0.00021527,0 -0.000419613,9.94395e-005 -0.000552928,0.000272093l-0.00162928 0.00209369 -0.00162928 -0.00209369c-0.000134407,-0.000172653 -0.000337657,-0.000272093 -0.00055402,-0.000272093 -0.000218548,0 -0.000421799,9.94395e-005 -0.000555113,0.000272093l-0.00163256 0.00209369 -0.00162928 -0.00209479c-0.000130036,-0.000173746 -0.000336565,-0.000272093 -0.000555113,-0.000272093 -0.000217456,0 -0.00041852,9.83468e-005 -0.00055402,0.000272093l-0.0021833 0.00280616c-0.000237125,0.000307061 -0.000182488,0.000748528 0.00012348,0.000985654l0 0zm0 0z"/>
   </g>
   <rect id="_271257192" class="fil2" width="0.087892" height="0.087892"/>
  </g>
 </g>
</svg>
