<?xml version="1.0" encoding="utf-8"?>
<!-- Generator: Adobe Illustrator 16.0.0, SVG Export Plug-In . SVG Version: 6.00 Build 0)  -->
<!DOCTYPE svg PUBLIC "-//W3C//DTD SVG 1.0//EN" "http://www.w3.org/TR/2001/REC-SVG-20010904/DTD/svg10.dtd">
<svg version="1.0" id="Layer_1" xmlns="http://www.w3.org/2000/svg" xmlns:xlink="http://www.w3.org/1999/xlink" x="0px" y="0px"
	 width="61.955px" height="61.951px" viewBox="0 0 61.955 61.951" enable-background="new 0 0 61.955 61.951" xml:space="preserve">
<g>
	<g>
		<path fill="#004CD2" d="M31.131,20.119c-5.995,0-10.872,4.874-10.872,10.871c0,6.008,4.877,10.881,10.872,10.881
			c5.996,0,10.881-4.873,10.881-10.881C42.012,24.993,37.127,20.119,31.131,20.119z M31.131,40.452
			c-5.209,0-9.461-4.241-9.461-9.462c0-5.208,4.252-9.462,9.461-9.462c5.222,0,9.465,4.253,9.465,9.462
			C40.596,36.21,36.353,40.452,31.131,40.452z"/>
		<path fill="#FFD712" d="M31.131,21.528c-5.209,0-9.461,4.253-9.461,9.462c0,5.221,4.252,9.462,9.461,9.462
			c5.222,0,9.465-4.241,9.465-9.462C40.596,25.781,36.353,21.528,31.131,21.528z M35.782,33.742c-0.938,1.48-2.55,2.357-4.305,2.357
			c-2.813,0-5.108-2.285-5.108-5.109c0-2.814,2.295-5.108,5.108-5.108c1.703,0,3.284,0.847,4.242,2.252
			c0.215,0.327,0.134,0.765-0.192,0.98c-0.326,0.225-0.766,0.144-0.98-0.183c-0.693-1.02-1.835-1.631-3.069-1.631
			c-2.04,0-3.689,1.662-3.689,3.69c0,2.04,1.649,3.703,3.689,3.703c1.266,0,2.438-0.644,3.122-1.715
			c0.202-0.324,0.643-0.415,0.968-0.213C35.902,32.978,35.995,33.418,35.782,33.742z"/>
		<path fill="#004CD2" d="M35.782,33.742c-0.938,1.48-2.55,2.357-4.305,2.357c-2.813,0-5.108-2.285-5.108-5.109
			c0-2.814,2.295-5.108,5.108-5.108c1.703,0,3.284,0.847,4.242,2.252c0.215,0.327,0.134,0.765-0.192,0.98
			c-0.326,0.225-0.766,0.144-0.98-0.183c-0.693-1.02-1.835-1.631-3.069-1.631c-2.04,0-3.689,1.662-3.689,3.69
			c0,2.04,1.649,3.703,3.689,3.703c1.266,0,2.438-0.644,3.122-1.715c0.202-0.324,0.643-0.415,0.968-0.213
			C35.902,32.978,35.995,33.418,35.782,33.742z"/>
	</g>
</g>
</svg>
