<?xml version="1.0" encoding="utf-8"?>
<!-- Generator: Adobe Illustrator 16.0.0, SVG Export Plug-In . SVG Version: 6.00 Build 0)  -->
<!DOCTYPE svg PUBLIC "-//W3C//DTD SVG 1.0//EN" "http://www.w3.org/TR/2001/REC-SVG-20010904/DTD/svg10.dtd">
<svg version="1.0" id="Layer_1" xmlns="http://www.w3.org/2000/svg" xmlns:xlink="http://www.w3.org/1999/xlink" x="0px" y="0px"
	 width="61.955px" height="61.951px" viewBox="0 0 61.955 61.951" enable-background="new 0 0 61.955 61.951" xml:space="preserve">
<g>
	<path fill="#004CD2" d="M42.547,30.967c0,4.149-0.022,8.299,0.014,12.448c0.01,1.113-0.645,2.067-2.059,2.059
		c-7.093-0.038-14.186-0.036-21.277-0.002c-1.293,0.008-2.035-0.844-2.031-2.04c0.02-8.299,0.01-16.599,0.011-24.898
		c0.001-1.386,0.67-2.056,2.052-2.056c7.094,0,14.187,0,21.278,0c1.348,0,2.013,0.677,2.013,2.039
		C42.547,22.667,42.547,26.816,42.547,30.967z M41.148,24.155c0.012-0.193,0.026-0.326,0.026-0.457c0.002-1.706,0.002-3.411,0-5.116
		c0-0.667-0.064-0.73-0.715-0.73c-7.062-0.001-14.123-0.001-21.186-0.001c-0.621,0-0.691,0.075-0.692,0.711
		c-0.001,1.676,0.018,3.351-0.011,5.026c-0.008,0.458,0.112,0.58,0.573,0.58c7.138-0.016,14.274-0.012,21.412-0.012
		C40.735,24.155,40.915,24.155,41.148,24.155z M41.175,25.567c-2.236,0-4.412,0-6.58,0c0,6.187,0,12.335,0,18.53
		c0.187,0,0.348,0,0.512,0c1.765,0,3.528,0,5.294-0.001c0.729,0,0.774-0.043,0.774-0.761c0-5.76,0-11.521,0-17.283
		C41.175,25.901,41.175,25.755,41.175,25.567z M33.152,25.565c-2.198,0-4.374,0-6.544,0c0,2.862,0,5.688,0,8.533
		c2.195,0,4.359,0,6.544,0C33.152,31.24,33.152,28.412,33.152,25.565z M33.136,44.07c0-2.866,0-5.707,0-8.542
		c-2.203,0-4.368,0-6.53,0c0,2.865,0,5.695,0,8.542C28.802,44.07,30.968,44.07,33.136,44.07z M25.166,25.563
		c-2.216,0-4.38,0-6.551,0c0,2.859,0,5.69,0,8.538c2.198,0,4.362,0,6.551,0C25.166,31.246,25.166,28.416,25.166,25.563z
		 M25.151,44.096c0-2.898,0-5.735,0-8.574c-2.197,0-4.359,0-6.514,0c-0.021,0.054-0.042,0.079-0.042,0.107
		c-0.005,2.667-0.009,5.334-0.011,8.002c0,0.315,0.167,0.466,0.48,0.464c0.481,0,0.964,0,1.446,0
		C22.047,44.096,23.581,44.096,25.151,44.096z"/>
	<path fill="#FFD712" d="M41.148,24.155c-0.233,0-0.413,0-0.592,0c-7.138,0-14.274-0.004-21.412,0.012
		c-0.461,0-0.581-0.122-0.573-0.58c0.028-1.675,0.01-3.35,0.011-5.026c0.001-0.637,0.071-0.711,0.692-0.711
		c7.062,0,14.123,0,21.186,0.001c0.65,0,0.715,0.064,0.715,0.73c0.002,1.705,0.002,3.41,0,5.116
		C41.175,23.829,41.16,23.962,41.148,24.155z"/>
	<path fill="#004CD2" d="M37.818,36.679c-0.559,0-1.116,0.007-1.675-0.002c-0.428-0.008-0.72-0.272-0.736-0.641
		c-0.018-0.386,0.277-0.709,0.717-0.714c1.146-0.016,2.294-0.016,3.439,0.001c0.439,0.006,0.735,0.333,0.716,0.717
		c-0.017,0.365-0.312,0.631-0.741,0.64c-0.572,0.009-1.146,0.001-1.72,0.001V36.679z"/>
	<path fill="#004CD2" d="M37.864,32.924c0.54,0,1.082-0.013,1.624,0.004c0.492,0.016,0.785,0.283,0.789,0.684
		c0.004,0.39-0.299,0.681-0.791,0.689c-1.099,0.019-2.195,0.016-3.292,0.001c-0.48-0.006-0.791-0.303-0.791-0.693
		c0-0.395,0.301-0.666,0.791-0.682C36.749,32.913,37.307,32.924,37.864,32.924z"/>
	<path fill="#004CD2" d="M29.884,29.142c0.542,0,1.086-0.009,1.627,0.002c0.5,0.011,0.786,0.277,0.777,0.692
		c-0.008,0.386-0.306,0.665-0.763,0.671c-1.085,0.01-2.171,0.01-3.258,0.003c-0.486-0.005-0.797-0.286-0.796-0.682
		c0-0.416,0.289-0.674,0.782-0.684C28.798,29.136,29.341,29.142,29.884,29.142z"/>
	<path fill="#004CD2" d="M31.964,38.431c-0.148,0.251-0.222,0.457-0.359,0.599c-0.819,0.84-1.65,1.667-2.486,2.491
		c-0.33,0.324-0.73,0.345-1.007,0.086c-0.307-0.287-0.318-0.689,0.022-1.036c0.828-0.85,1.659-1.704,2.53-2.508
		c0.179-0.167,0.555-0.221,0.806-0.17C31.657,37.934,31.788,38.229,31.964,38.431z"/>
	<path fill="#004CD2" d="M31.774,41.116c-0.052,0.345-0.238,0.549-0.592,0.556c-0.335,0.005-0.607-0.281-0.572-0.607
		c0.038-0.352,0.266-0.54,0.606-0.526C31.564,40.55,31.747,40.771,31.774,41.116z"/>
	<path fill="#004CD2" d="M29.149,38.493c-0.052,0.336-0.237,0.553-0.59,0.551c-0.346-0.003-0.555-0.208-0.576-0.557
		c-0.02-0.324,0.276-0.611,0.602-0.583C28.931,37.936,29.114,38.145,29.149,38.493z"/>
	<path fill="#004CD2" d="M22.568,30.511c0,0.35,0.019,0.665-0.005,0.975c-0.029,0.448-0.279,0.697-0.666,0.701
		c-0.379,0.002-0.652-0.255-0.69-0.691c-0.024-0.312-0.003-0.625-0.003-0.987c-0.348,0-0.647,0.013-0.945-0.003
		c-0.461-0.023-0.729-0.292-0.723-0.697c0.006-0.413,0.264-0.649,0.74-0.666c0.283-0.007,0.567,0,0.922,0
		c0-0.286-0.004-0.537,0-0.786c0.008-0.604,0.252-0.919,0.705-0.916c0.416,0.002,0.665,0.333,0.673,0.894
		c0.002,0.251,0,0.504,0,0.808c0.364,0,0.679-0.011,0.989,0.002c0.435,0.023,0.697,0.285,0.695,0.671
		c-0.002,0.389-0.259,0.654-0.687,0.689c-0.165,0.014-0.331,0.005-0.498,0.005C22.928,30.511,22.78,30.511,22.568,30.511z"/>
	<path fill="#004CD2" d="M21.015,39.807c-0.333-0.303-0.603-0.521-0.842-0.77c-0.34-0.354-0.354-0.763-0.062-1.04
		c0.306-0.289,0.673-0.269,1.038,0.084c0.236,0.231,0.45,0.486,0.789,0.854c0.261-0.32,0.457-0.609,0.698-0.852
		c0.348-0.353,0.744-0.368,1.037-0.086c0.315,0.305,0.29,0.676-0.078,1.069c-0.114,0.12-0.234,0.232-0.352,0.353
		c-0.114,0.118-0.226,0.238-0.4,0.418c0.271,0.242,0.547,0.457,0.781,0.707c0.342,0.366,0.35,0.758,0.059,1.042
		c-0.287,0.277-0.705,0.255-1.045-0.08c-0.234-0.23-0.443-0.488-0.736-0.816c-0.289,0.318-0.509,0.583-0.753,0.82
		c-0.345,0.331-0.769,0.351-1.046,0.074c-0.285-0.282-0.262-0.684,0.07-1.043c0.12-0.133,0.249-0.263,0.384-0.383
		C20.681,40.049,20.817,39.957,21.015,39.807z"/>
</g>
</svg>
