<?xml version="1.0" encoding="utf-8"?>
<!-- Generator: Adobe Illustrator 16.0.0, SVG Export Plug-In . SVG Version: 6.00 Build 0)  -->
<!DOCTYPE svg PUBLIC "-//W3C//DTD SVG 1.0//EN" "http://www.w3.org/TR/2001/REC-SVG-20010904/DTD/svg10.dtd">
<svg version="1.0" id="Layer_1" xmlns="http://www.w3.org/2000/svg" xmlns:xlink="http://www.w3.org/1999/xlink" x="0px" y="0px"
	 width="61.955px" height="61.949px" viewBox="0 0 61.955 61.949" enable-background="new 0 0 61.955 61.949" xml:space="preserve">
<g>
	<g>
		<path fill="#004CD2" d="M44.943,51.188H22.119c-0.316,0-0.576-0.256-0.576-0.575c0-0.317,0.26-0.575,0.576-0.575h22.249V14.994
			H17.942v34.665c0,0.317-0.257,0.573-0.576,0.573c-0.315,0-0.574-0.256-0.574-0.573v-35.24c0-0.315,0.259-0.573,0.574-0.573h27.577
			c0.317,0,0.574,0.258,0.574,0.573v36.193C45.518,50.932,45.261,51.188,44.943,51.188z"/>
	</g>
	<g>
		<path fill="#004CD2" d="M34.2,39.032c-0.856-0.2-1.525,0.149-2.14,0.702c-0.209,0.191-0.467,0.328-0.683,0.514
			c-0.3,0.256-0.567,0.229-0.874-0.004c-0.551-0.416-1.07-0.957-1.696-1.162c-0.614-0.201-1.344-0.062-2.021-0.045
			c-0.365,0.011-0.551-0.154-0.648-0.48c-0.162-0.533-0.311-1.07-0.516-1.584c-0.103-0.258-0.287-0.51-0.499-0.692
			c-0.412-0.351-0.863-0.657-1.31-0.966c-0.29-0.201-0.367-0.438-0.247-0.77c0.158-0.436,0.252-0.893,0.435-1.312
			c0.212-0.486,0.179-0.934-0.004-1.408c-0.169-0.441-0.288-0.904-0.444-1.352c-0.1-0.286-0.025-0.5,0.215-0.673
			c0.275-0.198,0.527-0.438,0.824-0.595c0.741-0.393,1.057-1.035,1.287-1.812c0.475-1.594,0.17-1.368,1.788-1.321
			c0.858,0.025,1.561-0.164,2.172-0.746c0.067-0.064,0.153-0.109,0.231-0.166c0.953-0.706,0.793-0.781,1.736,0.008
			c0.819,0.686,1.671,0.975,2.738,0.903c1.147-0.078,1.074-0.167,1.348,0.971c0.259,1.083,0.818,1.845,1.753,2.435
			c0.856,0.54,0.946,0.461,0.501,1.529c-0.449,1.073-0.463,2.08,0.033,3.113c0.035,0.072,0.054,0.152,0.08,0.229
			c0.199,0.622,0.177,0.684-0.356,1.083c-0.044,0.034-0.084,0.072-0.132,0.098c-1.098,0.566-1.667,1.49-1.932,2.682
			c-0.187,0.834-0.246,0.821-1.109,0.821C34.554,39.032,34.376,39.032,34.2,39.032z M30.945,25.592
			c-0.202,0.148-0.385,0.25-0.527,0.393c-0.796,0.793-1.744,1.039-2.852,0.939c-0.782-0.069-0.66-0.105-0.811,0.587
			c-0.244,1.13-0.811,1.985-1.836,2.519c-0.436,0.228-0.458,0.502-0.299,0.951c0.542,1.542,0.512,1.547,0.023,3.075
			c-0.237,0.751-0.333,0.603,0.321,0.997c0.963,0.582,1.581,1.357,1.761,2.475c0.018,0.106,0.077,0.205,0.095,0.311
			c0.044,0.241,0.167,0.33,0.421,0.318c0.489-0.02,0.981-0.031,1.467,0.008c0.256,0.018,0.532,0.102,0.748,0.24
			c0.51,0.33,0.988,0.709,1.488,1.075c0.383-0.28,0.77-0.517,1.099-0.813c0.466-0.42,0.983-0.584,1.601-0.521
			c0.351,0.037,0.71,0.026,1.06-0.006c0.119-0.012,0.287-0.131,0.329-0.241c0.177-0.469,0.288-0.964,0.478-1.425
			c0.108-0.262,0.28-0.525,0.492-0.707c0.454-0.385,0.951-0.718,1.441-1.08c-0.196-0.619-0.4-1.22-0.569-1.833
			c-0.053-0.194-0.055-0.431-0.002-0.624c0.14-0.525,0.313-1.038,0.491-1.551c0.074-0.214,0.039-0.343-0.154-0.474
			c-0.394-0.265-0.793-0.53-1.144-0.847c-0.23-0.205-0.431-0.477-0.556-0.758c-0.18-0.406-0.301-0.841-0.408-1.273
			c-0.08-0.316-0.217-0.447-0.56-0.427c-0.485,0.032-0.978,0.03-1.464-0.001c-0.217-0.014-0.453-0.09-0.634-0.211
			C31.939,26.349,31.459,25.972,30.945,25.592z"/>
	</g>
	<circle fill="#004CD2" cx="30.959" cy="32.516" r="4.524"/>
	<path fill="#FFD611" d="M31.363,33.775c-0.116,0-0.233-0.045-0.32-0.135l-1.895-1.893c-0.179-0.178-0.179-0.466,0-0.644
		c0.176-0.179,0.466-0.179,0.643,0l1.572,1.572l6.172-6.171c0.178-0.178,0.466-0.178,0.643,0c0.178,0.177,0.178,0.465,0,0.644
		l-6.493,6.491C31.596,33.73,31.48,33.775,31.363,33.775z"/>
</g>
</svg>
