<?xml version="1.0" encoding="UTF-8"?>
<!DOCTYPE svg PUBLIC "-//W3C//DTD SVG 1.1//EN" "http://www.w3.org/Graphics/SVG/1.1/DTD/svg11.dtd">
<!-- Creator: CorelDRAW -->
<svg xmlns="http://www.w3.org/2000/svg" xml:space="preserve" width="45px" height="45px" style="shape-rendering:geometricPrecision; text-rendering:geometricPrecision; image-rendering:optimizeQuality; fill-rule:evenodd; clip-rule:evenodd"
viewBox="0 0 45 45"
 xmlns:xlink="http://www.w3.org/1999/xlink">
 <defs>
  <style type="text/css">
   <![CDATA[
    .str0 {stroke:#EFF2F7;stroke-width:20.8335}
    .fil5 {fill:none;fill-rule:nonzero}
    .fil9 {fill:#004CD2}
    .fil10 {fill:#FFD712}
    .fil2 {fill:white}
    .fil0 {fill:black;fill-rule:nonzero}
    .fil11 {fill:#004CD2;fill-rule:nonzero}
    .fil4 {fill:#4C4C4C;fill-rule:nonzero}
    .fil3 {fill:#BAC4D6;fill-rule:nonzero}
    .fil1 {fill:#D69F87;fill-rule:nonzero}
    .fil7 {fill:#E5E5E5;fill-rule:nonzero}
    .fil8 {fill:#F4F4F4;fill-rule:nonzero}
    .fil6 {fill:white;fill-rule:nonzero}
   ]]>
  </style>
  <clipPath id="id0" style="clip-rule:nonzero">
   <rect x="2072.02" y="-490.375" width="188" height="358"/>
  </clipPath>
  <clipPath id="id1" style="clip-rule:nonzero">
   <path d="M678.333 -3186.37l134 0 0 -251.001 -134 0 0 251.001z"/>
  </clipPath>
 </defs>
<symbol id="Symbol3" viewBox="1361.31 -252.591 9.44646 6.64606">
 <path class="fil0" d="M1369.19 -250.544l-7.87559 4.45394 0.146457 0.145276 7.72913 -4.37835c0.895276,-0.416929 1.49173,-1.28858 1.57087,-2.26772 -0.174803,0.888189 -0.758268,1.64173 -1.57087,2.04685z"/>
</symbol>
<symbol id="Symbol5" viewBox="1944.03 -279.878 167.037 228.925">
 <path class="fil1" d="M2084.55 -248.811c0,0 -3.00472,8.44606 -3.00472,10.6382l0 76.624c0,0 0.929528,4.95 5.5878,6.95433 0,0 8.4378,4.00394 23.9374,3.89646 0,0 -18.7252,22.7575 -51.4795,20.2618 -3.0626,-0.232677 -35.0291,24.0213 -102.583,79.4835 0,0 -28.2992,-6.55866 -1.30748,-29.6043 8.87008,-7.57441 89.0244,-57.8953 90.9626,-58.8165 23.537,-11.2618 33.9366,-29.5453 25.2083,-47.9539 0,0 12.5787,-30.3295 -2.4626,-70.2579 0,0 10.2827,-20.2087 11.3787,-22.2921 0,0 2.38346,5.47559 1.72913,9.64606 0,0 0.72874,13.7043 2.03386,21.4205z"/>
</symbol>
<symbol id="Symbol7" viewBox="2205.35 -450.738 7.26142 5.63031">
 <path class="fil2" d="M2205.35 -449.453l3.62835 4.34528 3.63307 -4.34646c0,0 -1.51772,-1.30276 -3.69685,-1.28268 -1.06417,0.00944882 -2.28543,0.335433 -3.56457,1.2815l0 0.0023622z"/>
</symbol>
<symbol id="Fm4-46-0" viewBox="1944.03 -279.878 167.037 228.925">
 <path class="fil1" d="M2084.55 -248.811c0,0 -3.00472,8.44606 -3.00472,10.6382l0 76.624c0,0 0.929528,4.95 5.5878,6.95433 0,0 8.4378,4.00394 23.9374,3.89646 0,0 -18.7252,22.7575 -51.4795,20.2618 -3.0626,-0.232677 -35.0291,24.0213 -102.583,79.4835 0,0 -28.2992,-6.55866 -1.30748,-29.6043 8.87008,-7.57441 89.0244,-57.8953 90.9626,-58.8165 23.537,-11.2618 33.9366,-29.5453 25.2083,-47.9539 0,0 12.5787,-30.3295 -2.4626,-70.2579 0,0 10.2827,-20.2087 11.3787,-22.2921 0,0 2.38346,5.47559 1.72913,9.64606 0,0 0.72874,13.7043 2.03386,21.4205z"/>
</symbol>
<symbol id="Fm0-155-0" viewBox="2072.02 -490.375 188 358">
 <g style="clip-path:url(#id0)">
  <image transform="matrix(45.1172 0 0 85.9146 1056.88 -2065.45)" x="22.5" y="18.3331" width="4.16693" height="4.16693" xlink:href="medical-insurance-45x45px-graybackground_Images\medical-insurance-45x45px-graybackground_ImgID1.png"/>
 </g>
</symbol>
<symbol id="Fm6-48-0" viewBox="2205.35 -450.738 7.26142 5.63031">
 <path class="fil2" d="M2205.35 -449.453l3.62835 4.34528 3.63307 -4.34646c0,0 -1.51772,-1.30276 -3.69685,-1.28268 -1.06417,0.00944882 -2.28543,0.335433 -3.56457,1.2815l0 0.0023622z"/>
</symbol>
<symbol id="Fm0-36-0" viewBox="1337.51 -235.394 0.840945 2.43661">
 <path class="fil0" d="M1338.24 -233.19c-0.512598,-0.616535 -0.774803,-1.40433 -0.725197,-2.20394l0 0.229134c-0.0496063,0.80315 0.212598,1.59094 0.725197,2.20748l0.108661 -0.10748 -0.108661 -0.125197z"/>
</symbol>
<symbol id="Fm8-50-0" viewBox="2090.03 -218.59 150.758 19.7622">
 <path class="fil3" d="M2090.03 -218.59l0 16.4374c0,1.8378 1.48701,3.3248 3.3248,3.3248l144.109 0c1.83661,0 3.3248,-1.48701 3.3248,-3.3248l0 -16.4374 -150.758 0z"/>
</symbol>
<symbol id="Fm12-40-0" viewBox="686.948 -3428.57 116.745 233.663">
 <path class="fil4" d="M802.544 -3399.82l0 176.158 0 15.6047c0,7.0878 -4.34173,8.33268 -9.61299,9.11693 -1.80354,0.265748 -5.40354,0.824409 -9.63307,1.24488 -3.6,0.362598 -7.22953,0.609449 -10.7587,0.850394 -14.5417,1.00866 -27.2126,0.754724 -27.2126,0.754724l-0.00826772 0c0,0 -12.6709,0.253937 -27.2126,-0.754724 -3.52913,-0.240945 -7.15748,-0.487795 -10.7575,-0.850394 -4.22953,-0.420472 -7.82953,-0.979134 -9.6378,-1.24488 -5.27126,-0.784252 -9.60827,-2.02913 -9.60827,-9.11693l0 -15.6047 0 -176.158 0 -15.6083c0,-7.08307 4.33701,-8.33386 9.60827,-9.1122 1.80827,-0.271654 5.41181,-0.825591 9.6378,-1.24606 3.6,-0.362598 7.22835,-0.608268 10.7575,-0.853937 14.5417,-1.00512 27.2126,-0.75 27.2126,-0.75l0.00826772 0c0,0 12.6709,-0.255118 27.2126,0.75 3.52913,0.245669 7.15866,0.491339 10.7587,0.853937 4.22953,0.420472 7.82953,0.974409 9.63307,1.24606 5.27126,0.778346 9.61299,2.02913 9.61299,9.1122l0 15.6083zm-9.44173 -25.8579l-0.454724 -0.0673228c-1.9878,-0.295276 -5.30787,-0.796063 -9.2374,-1.18701 -3.48307,-0.350787 -6.99567,-0.591732 -10.3913,-0.829134l-0.400394 -0.0248031c-9.84921,-0.683858 -18.9,-0.784252 -23.4165,-0.784252 -2.27953,0 -3.69567,0.0248031 -3.87874,0.0248031 -0.184252,0 -1.60394,-0.0248031 -3.88346,-0.0248031 -4.51654,0 -13.5626,0.100394 -23.413,0.784252l-0.403937 0.0248031c-3.39567,0.237402 -6.90827,0.478346 -10.3913,0.829134 -3.9248,0.390945 -7.25079,0.891732 -9.23386,1.18701l-0.453543 0.0673228c-5.36339,0.794882 -10.5957,2.24173 -10.5957,10.2496l0 207.371c0,8.0126 5.23228,9.45827 10.5957,10.2543l0.461811 0.0708661c1.98307,0.295276 5.30906,0.791339 9.22559,1.18346 3.48307,0.349606 6.99567,0.591732 10.3913,0.824409l0.403937 0.0295276c9.85039,0.682677 18.8965,0.787795 23.413,0.787795 2.27953,0 3.69921,-0.0295276 3.88346,-0.034252 0.183071,0.00472441 1.60394,0.034252 3.88346,0.034252l0.00354331 0c4.51654,0 13.5626,-0.105118 23.4083,-0.787795l0.403937 -0.0295276c3.39685,-0.232677 6.90827,-0.474803 10.3878,-0.824409 3.92126,-0.392126 7.24134,-0.888189 9.22913,-1.18346l0.462992 -0.0708661c5.3622,-0.796063 10.5909,-2.24173 10.5909,-10.2543l0 -207.371c0,-8.00787 -5.22874,-9.45472 -10.5909,-10.2496z"/>
</symbol>
<symbol id="Fm10-38-0" viewBox="590.378 -3224.16 28.4339 57.4547">
 <path class="fil5 str0" d="M604.517 -3218.81c0,0 -11.2535,18.8079 5.33386,46.7953"/>
</symbol>
<symbol id="Symbol1" viewBox="1337.51 -235.394 0.840945 2.43661">
 <path class="fil0" d="M1338.24 -233.19c-0.512598,-0.616535 -0.774803,-1.40433 -0.725197,-2.20394l0 0.229134c-0.0496063,0.80315 0.212598,1.59094 0.725197,2.20748l0.108661 -0.10748 -0.108661 -0.125197z"/>
</symbol>
<symbol id="Fm14-42-0" viewBox="782.778 -3407.54 2.47677 4.1374">
 <path class="fil6" d="M783.602 -3403.93l0.275197 -1.12913 -0.496063 0 0.359055 -1.37835 0.936614 0 -0.387402 0.829134 0.553937 0 -1.24134 1.67835zm1.65236 0.525591l0 -3.58346 -0.689764 0 0 -0.553937 -1.09961 0 0 0.553937 -0.687402 0 0 3.58346 2.47677 0z"/>
</symbol>
<symbol id="Fm2-44-0" viewBox="1361.31 -252.591 9.44646 6.64606">
 <path class="fil0" d="M1369.19 -250.544l-7.87559 4.45394 0.146457 0.145276 7.72913 -4.37835c0.895276,-0.416929 1.49173,-1.28858 1.57087,-2.26772 -0.174803,0.888189 -0.758268,1.64173 -1.57087,2.04685z"/>
</symbol>
<symbol id="Symbol2" viewBox="1335.24 -246.089 26.263 13.7409">
 <path class="fil0" d="M1361.31 -246.089l-22.8165 12.9909c-0.933071,0.69685 -2.21693,0.69685 -3.14528,0l-0.113386 0.108661 0.113386 0.112205c0.928346,0.705118 2.21693,0.705118 3.14528,0l23.0043 -13.0701 -0.187795 -0.141732z"/>
</symbol>
<symbol id="Symbol4" viewBox="1334.5 -272.833 36.2587 20.2441">
 <path class="fil6" d="M1338.5 -272.086l30.6874 17.4461c0.816142,0.403937 1.39606,1.15866 1.57087,2.05039 -0.0755906,-0.987402 -0.675591,-1.85079 -1.57087,-2.26654l-30.6874 -17.4508c-2.20512,-1.24488 -4.00039,-0.20315 -4.00039,2.31732l0 0.237402c0.046063,-2.54173 1.81299,-3.5752 4.00039,-2.33386z"/>
</symbol>
<symbol id="Symbol6" viewBox="2080.84 -481.546 169.854 339.963">
 <path class="fil4" d="M2249.02 -439.721l0 256.304 0 22.7043c0,10.3122 -6.31654,12.1252 -13.9843,13.2626 -2.62441,0.387402 -7.87087,1.2 -14.0209,1.81299 -5.23701,0.529134 -10.5165,0.887008 -15.6496,1.24134 -21.1583,1.4622 -39.5917,1.09606 -39.5917,1.09606l-0.00826772 0c0,0 -18.437,0.366142 -39.5953,-1.09606 -5.13425,-0.354331 -10.4126,-0.712205 -15.6543,-1.24134 -6.15,-0.612992 -11.3917,-1.42559 -14.0173,-1.81299 -7.67008,-1.1374 -13.9866,-2.95039 -13.9866,-13.2626l0 -22.7043 0 -256.304 0 -22.6996c0,-10.3134 6.31654,-12.1252 13.9866,-13.2673 2.62559,-0.390945 7.86732,-1.19528 14.0173,-1.81181 5.24173,-0.525591 10.5201,-0.883465 15.6543,-1.2378 21.1583,-1.46693 39.5953,-1.09606 39.5953,-1.09606l0.00826772 0c0,0 18.4335,-0.370866 39.5917,1.09606 5.13307,0.354331 10.4126,0.712205 15.6496,1.2378 6.15,0.616535 11.3965,1.42087 14.0209,1.81181 7.66772,1.14213 13.9843,2.95394 13.9843,13.2673l0 22.6996zm-13.7374 -37.6169l-0.659055 -0.103937c-2.8878,-0.42874 -7.72913,-1.15039 -13.4409,-1.72441 -5.06339,-0.509055 -10.1752,-0.863386 -15.1217,-1.2l-0.57874 -0.0425197c-14.3339,-0.995669 -27.4961,-1.1374 -34.0665,-1.1374 -3.32126,0 -5.38346,0.0377953 -5.64567,0.0377953 -0.271654,0 -2.33386,-0.0377953 -5.65039,-0.0377953 -6.57047,0 -19.7374,0.141732 -34.0665,1.1374l-0.588189 0.0425197c-4.94055,0.336614 -10.05,0.690945 -15.1122,1.2 -5.71181,0.574016 -10.5543,1.29567 -13.4457,1.72441l-0.657874 0.103937c-7.79646,1.15394 -15.4087,3.25394 -15.4087,14.9173l0 301.708c0,11.6587 7.6122,13.7622 15.4087,14.9173l0.674409 0.0992126c2.88307,0.433465 7.72559,1.15866 13.4291,1.72559 5.0622,0.507874 10.1717,0.862205 15.1169,1.20827l0.583465 0.0330709c14.3291,0.995669 27.4913,1.14567 34.0618,1.14567 3.32126,0 5.38346,-0.0413386 5.65512,-0.046063 0.262205,0.00472441 2.32913,0.046063 5.64567,0.046063l0.00826772 0c6.56693,0 19.7291,-0.15 34.0583,-1.14567l0.583465 -0.0330709c4.94528,-0.346063 10.0535,-0.700394 15.1169,-1.20827 5.70354,-0.566929 10.5366,-1.29213 13.4291,-1.72559l0.670866 -0.0992126c7.8,-1.15512 15.4122,-3.25866 15.4122,-14.9173l0 -301.708c0,-11.6634 -7.6122,-13.7634 -15.4122,-14.9173z"/>
</symbol>
<symbol id="Symbol9" viewBox="2090.03 -218.59 150.758 19.7622">
 <path class="fil3" d="M2090.03 -218.59l0 16.4374c0,1.8378 1.48701,3.3248 3.3248,3.3248l144.109 0c1.83661,0 3.3248,-1.48701 3.3248,-3.3248l0 -16.4374 -150.758 0z"/>
</symbol>
<symbol id="Symbol8" viewBox="2220.26 -450.946 3.60827 6.01654">
 <path class="fil6" d="M2221.46 -445.694l0.403937 -1.64173 -0.724016 0 0.524409 -2.00433 1.36299 0 -0.563386 1.20354 0.804331 0 -1.80827 2.44252zm-1.2 0.764173l3.60827 0 0 -5.21102 -1.00394 0 0 -0.805512 -1.60394 0 0 0.805512 -1.00039 0 0 5.21102z"/>
</symbol>
<symbol id="Fm5-47-0" viewBox="2080.84 -481.546 169.854 339.963">
 <path class="fil4" d="M2249.02 -439.721l0 256.304 0 22.7043c0,10.3122 -6.31654,12.1252 -13.9843,13.2626 -2.62441,0.387402 -7.87087,1.2 -14.0209,1.81299 -5.23701,0.529134 -10.5165,0.887008 -15.6496,1.24134 -21.1583,1.4622 -39.5917,1.09606 -39.5917,1.09606l-0.00826772 0c0,0 -18.437,0.366142 -39.5953,-1.09606 -5.13425,-0.354331 -10.4126,-0.712205 -15.6543,-1.24134 -6.15,-0.612992 -11.3917,-1.42559 -14.0173,-1.81299 -7.67008,-1.1374 -13.9866,-2.95039 -13.9866,-13.2626l0 -22.7043 0 -256.304 0 -22.6996c0,-10.3134 6.31654,-12.1252 13.9866,-13.2673 2.62559,-0.390945 7.86732,-1.19528 14.0173,-1.81181 5.24173,-0.525591 10.5201,-0.883465 15.6543,-1.2378 21.1583,-1.46693 39.5953,-1.09606 39.5953,-1.09606l0.00826772 0c0,0 18.4335,-0.370866 39.5917,1.09606 5.13307,0.354331 10.4126,0.712205 15.6496,1.2378 6.15,0.616535 11.3965,1.42087 14.0209,1.81181 7.66772,1.14213 13.9843,2.95394 13.9843,13.2673l0 22.6996zm-13.7374 -37.6169l-0.659055 -0.103937c-2.8878,-0.42874 -7.72913,-1.15039 -13.4409,-1.72441 -5.06339,-0.509055 -10.1752,-0.863386 -15.1217,-1.2l-0.57874 -0.0425197c-14.3339,-0.995669 -27.4961,-1.1374 -34.0665,-1.1374 -3.32126,0 -5.38346,0.0377953 -5.64567,0.0377953 -0.271654,0 -2.33386,-0.0377953 -5.65039,-0.0377953 -6.57047,0 -19.7374,0.141732 -34.0665,1.1374l-0.588189 0.0425197c-4.94055,0.336614 -10.05,0.690945 -15.1122,1.2 -5.71181,0.574016 -10.5543,1.29567 -13.4457,1.72441l-0.657874 0.103937c-7.79646,1.15394 -15.4087,3.25394 -15.4087,14.9173l0 301.708c0,11.6587 7.6122,13.7622 15.4087,14.9173l0.674409 0.0992126c2.88307,0.433465 7.72559,1.15866 13.4291,1.72559 5.0622,0.507874 10.1717,0.862205 15.1169,1.20827l0.583465 0.0330709c14.3291,0.995669 27.4913,1.14567 34.0618,1.14567 3.32126,0 5.38346,-0.0413386 5.65512,-0.046063 0.262205,0.00472441 2.32913,0.046063 5.64567,0.046063l0.00826772 0c6.56693,0 19.7291,-0.15 34.0583,-1.14567l0.583465 -0.0330709c4.94528,-0.346063 10.0535,-0.700394 15.1169,-1.20827 5.70354,-0.566929 10.5366,-1.29213 13.4291,-1.72559l0.670866 -0.0992126c7.8,-1.15512 15.4122,-3.25866 15.4122,-14.9173l0 -301.708c0,-11.6634 -7.6122,-13.7634 -15.4122,-14.9173z"/>
</symbol>
<symbol id="Fm0-148-0" viewBox="678.333 -3437.37 134 251.001">
 <g style="clip-path:url(#id1)">
  <image transform="matrix(32.158 0 0 60.2362 -45.2215 -4541.69)" x="22.5" y="18.3331" width="4.16693" height="4.16693" xlink:href="medical-insurance-45x45px-graybackground_Images\medical-insurance-45x45px-graybackground_ImgID2.png"/>
 </g>
</symbol>
<symbol id="Fm7-49-0" viewBox="2220.26 -450.946 3.60827 6.01654">
 <path class="fil6" d="M2221.46 -445.694l0.403937 -1.64173 -0.724016 0 0.524409 -2.00433 1.36299 0 -0.563386 1.20354 0.804331 0 -1.80827 2.44252zm-1.2 0.764173l3.60827 0 0 -5.21102 -1.00394 0 0 -0.805512 -1.60394 0 0 0.805512 -1.00039 0 0 5.21102z"/>
</symbol>
<symbol id="Fm11-39-0" viewBox="592.919 -3289.97 114.808 156.788">
 <path class="fil1" d="M689.498 -3268.61c0,0 -2.06693,5.80866 -2.06693,7.3122l0 52.6677c0,0 0.637795,3.39921 3.84213,4.77874 0,0 5.79567,2.74961 16.4539,2.6752 0,0 -12.8705,15.0874 -35.3835,13.3701 -2.10354,-0.161811 -24.0791,16.5083 -70.5083,54.6295 0,0 -19.4492,-4.50827 -0.895276,-20.3504 6.09567,-5.20748 61.187,-39.2291 62.5169,-39.8657 16.1787,-7.7374 23.3244,-20.3043 17.3291,-32.9587 0,0 8.64094,-20.8465 -1.69606,-48.2917 0,0 7.07126,-13.8839 7.82126,-15.3213 0,0 1.63701,3.76654 1.19055,6.63425 0,0 0.500787,9.42047 1.39606,14.7201z"/>
</symbol>
<symbol id="Fm1-37-0" viewBox="1335.24 -246.089 26.263 13.7409">
 <path class="fil0" d="M1361.31 -246.089l-22.8165 12.9909c-0.933071,0.69685 -2.21693,0.69685 -3.14528,0l-0.113386 0.108661 0.113386 0.112205c0.928346,0.705118 2.21693,0.705118 3.14528,0l23.0043 -13.0701 -0.187795 -0.141732z"/>
</symbol>
<symbol id="Fm9-51-0" viewBox="829.488 -3251.85 58.5378 60.7335">
 <path class="fil7" d="M877.997 -3217.23c-0.0838583,-0.046063 -0.166535,-0.0838583 -0.245669,-0.129921 0.504331,-0.12874 1.0122,-0.282283 1.52008,-0.483071 2.25472,-0.875197 4.42913,-1.84961 6.06732,-3.60827 2.45787,-2.6374 3.03307,-5.4 2.50866,-8.79567 -0.54685,-3.49134 -4.50472,-6.3626 -7.44213,-8.1874 -0.174803,-0.395669 -0.379134,-0.779528 -0.608268,-1.1374 -1.67126,-2.60079 -4.89213,-4.36654 -7.97953,-5.11299 -0.433465,-0.103937 -0.862205,-0.183071 -1.2874,-0.237402 -0.866929,-2.42008 -2.77441,-4.6122 -5.1248,-5.7626 -4.49646,-2.19921 -9.01654,-0.870472 -13.3795,0.733465 -3.53268,1.29567 -5.9622,4.27559 -4.87087,7.95472 0.474803,1.60748 1.80472,3.10394 3.46299,3.99567 -0.0377953,0.191339 -0.0625984,0.374409 -0.0791339,0.562205 -0.3,0.120472 -0.588189,0.250394 -0.879921,0.400394 -2.41181,1.25787 -4.08661,3.49134 -4.92874,5.96575 -0.153543,-0.011811 -0.316535,-0.0248031 -0.433465,-0.0366142 -0.116929,-0.0165354 -0.229134,-0.0377953 -0.341339,-0.0590551 -3.14173,-0.520866 -6.19606,-0.620079 -9,1.04646 -4.02047,2.38701 -5.9126,7.0252 -5.37874,11.3409 0.357874,2.89606 1.33701,5.45079 3.14173,7.43386 0.120472,3.77126 2.19094,7.18701 5.56654,9.36614 -0.0259843,0.212598 -0.046063,0.429921 -0.0590551,0.646063 -0.141732,2.80039 1.79646,4.87087 4.30394,5.85472 0.0295276,0.0377953 0.0625984,0.0708661 0.092126,0.103937 0.807874,0.875197 1.84961,1.51299 2.85,2.18386 2.25472,1.50354 5.2748,1.82835 7.94173,2.0622 1.56614,0.133465 3.02953,-0.387402 4.20472,-1.27559 2.72008,0.174803 5.14961,-0.390945 7.7622,-1.44094 1.4374,-0.579921 2.61614,-1.67953 3.69567,-2.78386 2.17087,0.679134 4.39606,0.692126 6.8752,0.275197 5.04567,-0.845669 10.6831,-5.7626 9.98268,-10.8413 -0.633071,-4.60866 -3.70748,-7.74213 -7.93701,-10.0335z"/>
</symbol>
<symbol id="Fm13-41-0" viewBox="772.522 -3407.4 4.99016 3.86929">
 <path class="fil2" d="M772.522 -3406.51l2.49567 2.98819 2.49449 -2.98701 0 -0.0023622c-0.046063,-0.0389764 -1.01102,-0.840945 -2.4,-0.879921l-0.190157 0c-0.719291,0.0177165 -1.54016,0.244488 -2.4,0.881102z"/>
</symbol>
<symbol id="Fm15-43-0" viewBox="693.262 -3247.84 103.62 13.5827">
 <path class="fil3" d="M693.262 -3247.84l0 11.2949c0,1.2626 1.0252,2.2878 2.28307,2.2878l99.0496 0c1.2626,0 2.2878,-1.0252 2.2878,-2.2878l0 -11.2949 -103.62 0z"/>
</symbol>
<symbol id="Fm3-45-0" viewBox="1334.5 -272.833 36.2587 20.2441">
 <path class="fil6" d="M1338.5 -272.086l30.6874 17.4461c0.816142,0.403937 1.39606,1.15866 1.57087,2.05039 -0.0755906,-0.987402 -0.675591,-1.85079 -1.57087,-2.26654l-30.6874 -17.4508c-2.20512,-1.24488 -4.00039,-0.20315 -4.00039,2.31732l0 0.237402c0.046063,-2.54173 1.81299,-3.5752 4.00039,-2.33386z"/>
</symbol>
 <g id="Layer_x0020_1">
  <metadata id="CorelCorpID_0Corel-Layer"/>
  <g id="_585299512">
   <path id="_585299440" class="fil8" d="M45 22.5012c0,12.4287 -10.0736,22.4988 -22.4976,22.4988 -12.4264,0 -22.5024,-10.0701 -22.5024,-22.4988 0,-12.4276 10.076,-22.5012 22.5024,-22.5012 12.424,0 22.4976,10.0736 22.4976,22.5012z"/>
   <g>
    <g>
     <path id="_585299824" class="fil9" d="M15.8008 30.5339l-3.31299 -3.30945c-0.0248031,-0.0248031 -0.677953,-0.604724 -0.677953,-1.74331l0 -6.16535c0,-0.453543 0.368504,-0.822047 0.823228,-0.822047 0.452362,0 0.820866,0.367323 0.820866,0.822047l0 3.25276c0,0.227953 0.184252,0.411024 0.411024,0.411024 0.226772,0 0.412205,-0.183071 0.412205,-0.411024l0 -3.25276c0,-0.907087 -0.73937,-1.64528 -1.64409,-1.64528 -0.907087,0 -1.64409,0.738189 -1.64409,1.64528l0 6.16535c0,1.53425 0.928346,2.33622 0.943701,2.34449l3.16535 3.16654 0 2.50276c0,0.226772 0.184252,0.409843 0.411024,0.409843 0.227953,0 0.411024,-0.183071 0.411024,-0.409843l0 -2.58543 -0.0165354 0c0.0295276,-0.132283 -0.0011811,-0.272835 -0.102756,-0.375591z"/>
     <path id="_585302440" class="fil9" d="M19.089 26.8335l-2.87835 -2.87598c-0.308268,-0.31063 -0.706299,-0.491339 -1.11969,-0.505512 -0.433465,-0.0188976 -0.843307,0.141732 -1.15394,0.454724 -0.314173,0.312992 -0.474803,0.722835 -0.457087,1.15512 0.0165354,0.413386 0.196063,0.811417 0.507874,1.11969l2.05394 2.0563c0.16063,0.161811 0.420472,0.161811 0.582283,0 0.159449,-0.16063 0.159449,-0.420472 0,-0.581102l-2.0563 -2.0563c-0.162992,-0.161811 -0.256299,-0.366142 -0.265748,-0.571654 -0.00826772,-0.201969 0.0673228,-0.389764 0.216142,-0.539764 0.151181,-0.148819 0.338976,-0.224409 0.540945,-0.214961 0.205512,0.00708661 0.411024,0.101575 0.572835,0.265748l2.89606 2.89488c0.0259843,0.0259843 0.681496,0.622441 0.681496,1.74567l0 4.31575c0,0.226772 0.184252,0.411024 0.411024,0.411024 0.225591,0 0.413386,-0.184252 0.413386,-0.411024l0 -4.31575c-0.0023622,-1.51299 -0.928346,-2.3315 -0.944882,-2.34685z"/>
     <path id="_585301504" class="fil9" d="M31.5224 25.0004c0,-0.409843 -0.16063,-0.798425 -0.458268,-1.09252 -0.311811,-0.312992 -0.725197,-0.473622 -1.15394,-0.455906 -0.412205,0.0153543 -0.812598,0.194882 -1.12087,0.505512l-2.85591 2.85827c-0.0401575,0.0330709 -0.96378,0.851575 -0.96378,2.36457l0 4.31457c0,0.226772 0.184252,0.411024 0.409843,0.411024 0.227953,0 0.412205,-0.184252 0.412205,-0.411024l0 -4.31457c0,-1.12441 0.654331,-1.72205 0.700394,-1.76457l2.87953 -2.87717c0.162992,-0.164173 0.366142,-0.25748 0.572835,-0.265748 0.207874,-0.00826772 0.388583,0.0673228 0.539764,0.214961 0.141732,0.141732 0.217323,0.318898 0.217323,0.511417 0,0.216142 -0.0956693,0.431102 -0.265748,0.602362l-2.0563 2.05512c-0.16063,0.16063 -0.16063,0.420472 0,0.581102 0.158268,0.161811 0.420472,0.161811 0.581102,0l2.05512 -2.05394c0.327165,-0.328346 0.506693,-0.747638 0.506693,-1.18346z"/>
     <path id="_585301336" class="fil9" d="M32.3681 17.6717c-0.907087,0 -1.64291,0.738189 -1.64291,1.64528l0 3.25276c0,0.226772 0.183071,0.411024 0.409843,0.411024 0.227953,0 0.412205,-0.184252 0.412205,-0.411024l0 -3.25276c0,-0.453543 0.368504,-0.822047 0.820866,-0.822047 0.452362,0 0.823228,0.367323 0.823228,0.822047l0 6.16417c0,1.13858 -0.651969,1.71969 -0.702756,1.76457l-3.28819 3.28937c-0.0555118,0.0531496 -0.0850394,0.119291 -0.101575,0.187795l-0.0129921 0 0 0.0720472c-0.0011811,0.0212598 -0.0011811,0.0401575 0,0.0614173l0 2.63976c0,0.226772 0.183071,0.411024 0.411024,0.411024 0.227953,0 0.411024,-0.184252 0.411024,-0.411024l0 -2.5063 3.13583 -3.13937c0.0389764,-0.0330709 0.967323,-0.833858 0.967323,-2.36929l0 -6.16535c0,-0.907087 -0.735827,-1.64409 -1.64291,-1.64409z"/>
     <path id="_585302272" class="fil10" d="M22.3417 24.2209c0,0 6.54094,-3.20315 6.78071,-9.14173 0,0 -1.64173,-6.07087 -6.78071,-2.4874 0,0 -5.80512,-4.27441 -6.75827,3.82323 0,0 1.27795,4.96535 6.75827,7.80591z"/>
     <path id="_585301936" class="fil9" d="M22.1504 24.6024c0.0590551,0.0330709 0.125197,0.0496063 0.191339,0.0496063 0.0661417,0 0.131102,-0.0165354 0.190157,-0.0496063 4.53898,-2.47559 6.9874,-6.54921 6.9874,-9.12402 0,-2.4189 -1.96535,-4.38543 -4.38661,-4.38543 -1.69961,0 -3.26102,0.993307 -3.97795,2.53465 -0.092126,0.199606 -0.00708661,0.438189 0.19252,0.530315 0.199606,0.0933071 0.437008,0.00708661 0.527953,-0.19252 0.588189,-1.26142 1.86732,-2.0752 3.25748,-2.0752 1.97953,0 3.58937,1.60984 3.58937,3.58937 0,2.34094 -2.38228,6.0626 -6.38031,8.31732 -3.99921,-2.25591 -6.38268,-5.97638 -6.38268,-8.31732 0,-1.97953 1.61102,-3.58937 3.59173,-3.58937 0.498425,0 0.982677,0.100394 1.43622,0.301181 0.200787,0.0862205 0.435827,-0.00472441 0.525591,-0.207874 0.0874016,-0.200787 -0.00472441,-0.435827 -0.205512,-0.524409 -0.556299,-0.242126 -1.14685,-0.366142 -1.7563,-0.366142 -2.4189,0 -4.3878,1.96772 -4.3878,4.38661 0,2.5748 2.44961,6.64724 6.9874,9.12283z"/>
    </g>
    <path id="_585299536" class="fil11" d="M17.5701 17.4933c-0.20315,0 -0.368504,0.165354 -0.368504,0.368504 0,0.20315 0.165354,0.368504 0.368504,0.368504l2.16024 0c0.111024,0 0.210236,-0.0496063 0.277559,-0.127559l0.0685039 -0.0661417 0.605906 1.40433 0.337795 -0.145276 -0.337795 0.145276c0.080315,0.187795 0.297638,0.272835 0.484252,0.19252 0.119291,-0.0519685 0.198425,-0.159449 0.217323,-0.279921l0.457087 -1.86496 0.459449 3.19606 0.36378 -0.0519685 -0.36378 0.0519685c0.0283465,0.201969 0.216142,0.341339 0.416929,0.312992 0.161811,-0.023622 0.283465,-0.15 0.309449,-0.303543l0.703937 -2.87008 0.148819 0.235039 0.31063 -0.197244 -0.31063 0.197244c0.069685,0.109843 0.188976,0.170079 0.31063,0.17126l0 0 2.6752 0c0.204331,0 0.368504,-0.165354 0.368504,-0.368504 0,-0.20315 -0.164173,-0.368504 -0.368504,-0.368504l-2.47323 0 -0.491339 -0.772441c-0.0484252,-0.0862205 -0.129921,-0.153543 -0.233858,-0.179528 -0.197244,-0.0472441 -0.398031,0.0732283 -0.445276,0.270472l0.357874 0.0885827 -0.356693 -0.0874016 -0.464173 1.89213 -0.454724 -3.16535c-0.00944882,-0.157087 -0.119291,-0.295276 -0.279921,-0.335433 -0.197244,-0.0484252 -0.39685,0.0732283 -0.445276,0.270472l0.0011811 0 -0.655512 2.66929 -0.387402 -0.896457c-0.0177165,-0.0413386 -0.0425197,-0.080315 -0.0767717,-0.114567 -0.142913,-0.144094 -0.376772,-0.144094 -0.520866,-0.0011811l0 0.0011811 -0.360236 0.360236 -2.00906 0z"/>
   </g>
  </g>
 </g>
</svg>
