<?xml version="1.0" encoding="utf-8"?>
<!-- Generator: Adobe Illustrator 16.0.0, SVG Export Plug-In . SVG Version: 6.00 Build 0)  -->
<!DOCTYPE svg PUBLIC "-//W3C//DTD SVG 1.0//EN" "http://www.w3.org/TR/2001/REC-SVG-20010904/DTD/svg10.dtd">
<svg version="1.0" id="Layer_1" xmlns="http://www.w3.org/2000/svg" xmlns:xlink="http://www.w3.org/1999/xlink" x="0px" y="0px"
	 width="61.955px" height="61.951px" viewBox="0 0 61.955 61.951" enable-background="new 0 0 61.955 61.951" xml:space="preserve">
<g>
	<g>
		<path fill="#004CD2" d="M44.943,50.283H22.119c-0.316,0-0.576-0.258-0.576-0.576c0-0.317,0.26-0.574,0.576-0.574h22.249V14.088
			H17.942v34.666c0,0.318-0.257,0.575-0.576,0.575c-0.315,0-0.574-0.257-0.574-0.575V13.516c0-0.318,0.259-0.574,0.574-0.574h27.577
			c0.317,0,0.574,0.256,0.574,0.574v36.191C45.518,50.025,45.261,50.283,44.943,50.283z"/>
	</g>
	<g>
		<path fill="#004CD2" d="M42.219,19.904v1.146c-0.021-0.002-0.044-0.002-0.073-0.002h-4.599c-0.211,0-0.223,0-0.186-0.215
			c0.032-0.181,0.068-0.368,0.144-0.533c0.121-0.261,0.335-0.396,0.642-0.396c1.322,0.006,2.645,0.002,3.969,0.002
			C42.157,19.906,42.19,19.906,42.219,19.904z"/>
		<path fill="#004CD2" d="M42.219,23.468v1.267c-0.034-0.002-0.077-0.002-0.129-0.002c-1.121,0-2.245,0.004-3.367-0.004
			c-0.212,0-0.43-0.028-0.639-0.074c-0.408-0.094-0.628-0.375-0.698-0.778c-0.024-0.126-0.028-0.253-0.044-0.407h4.798
			C42.17,23.469,42.197,23.469,42.219,23.468z"/>
		<path fill="#004CD2" d="M21.058,19.901c-0.329-0.011-0.604,0.051-0.788,0.347v4.484c0.28,0,0.739,0,1.021,0
			c0.193,0,0.194,0,0.194-0.2c0.001-1.399,0.001-2.798,0.002-4.198C21.487,19.904,21.487,19.918,21.058,19.901z"/>
		<path fill="#004CD2" d="M23.822,22.314c0-0.739,0.004-1.48-0.002-2.219c-0.002-0.144,0.036-0.203,0.185-0.191
			c0.128,0.01,0.257,0.002,0.388,0.004c0.412,0,0.67,0.213,0.742,0.621c0.02,0.111,0.032,0.227,0.032,0.341
			c0.001,1.228-0.003,2.454,0.002,3.681c0,0.149-0.048,0.189-0.19,0.186c-0.334-0.01-0.668-0.008-1.001-0.002
			c-0.12,0.002-0.155-0.04-0.155-0.158c0.004-0.752,0.002-1.508,0.002-2.262H23.822z"/>
		<path fill="#004CD2" d="M32.961,22.32c0,0.746-0.004,1.49,0.002,2.236c0.002,0.141-0.043,0.182-0.178,0.18
			c-0.34-0.008-0.68-0.008-1.019-0.002c-0.114,0.002-0.147-0.037-0.147-0.149c0.003-1.247-0.001-2.493,0.004-3.743
			c0-0.149,0.029-0.305,0.072-0.447c0.094-0.319,0.331-0.484,0.66-0.486c0.147-0.002,0.298,0.004,0.445-0.004
			c0.125-0.008,0.164,0.041,0.164,0.166c-0.004,0.713-0.002,1.424-0.002,2.137c0,0.037,0,0.074,0,0.113H32.961z"/>
		<path fill="#004CD2" d="M36.646,22.71c0,0.616-0.004,1.233,0.003,1.849c0.001,0.142-0.044,0.18-0.18,0.178
			c-0.335-0.008-0.668-0.006-1.004-0.002c-0.111,0.002-0.161-0.029-0.161-0.152c0.002-1.504,0.002-3.009-0.002-4.515
			c-0.001-0.128,0.046-0.169,0.167-0.163c0.139,0.008,0.278,0.012,0.416,0.002c0.43-0.032,0.657,0.29,0.715,0.586
			c0.028,0.145,0.044,0.294,0.045,0.441C36.649,21.525,36.646,22.119,36.646,22.71L36.646,22.71z"/>
		<path fill="#004CD2" d="M28.463,23.469c0.792,0,1.585,0.002,2.377-0.004c0.141,0,0.169,0.045,0.154,0.174
			c-0.086,0.729-0.336,0.986-1.062,1.076c-0.1,0.012-0.201,0.018-0.3,0.018c-1.171,0-2.341,0-3.511,0c-0.215,0-0.215,0-0.215-0.221
			c-0.002-0.292,0.004-0.584-0.004-0.875c-0.004-0.127,0.032-0.172,0.166-0.172C26.867,23.471,27.665,23.469,28.463,23.469z"/>
		<path fill="#004CD2" d="M28.912,22.979c-0.62,0-1.24,0.004-1.86-0.001c-0.097-0.002-0.199-0.031-0.286-0.074
			c-0.258-0.129-0.511-0.282-0.656-0.537c-0.096-0.162-0.14-0.357-0.194-0.545c-0.034-0.115,0.02-0.166,0.148-0.164
			c0.732,0.008,1.463,0.008,2.194,0.012c0.396,0.001,0.792-0.008,1.189,0.004c0.443,0.011,0.836,0.176,1.176,0.457
			c0.223,0.184,0.303,0.441,0.335,0.721c0.012,0.113-0.024,0.151-0.14,0.149C30.184,22.997,29.549,23,28.912,23
			C28.912,22.994,28.912,22.985,28.912,22.979z"/>
		<path fill="#004CD2" d="M21.988,22.01c0-0.64,0.004-1.279-0.004-1.918c0-0.146,0.045-0.192,0.188-0.188
			c0.34,0.008,0.678,0.004,1.017,0c0.11,0,0.153,0.037,0.153,0.148c-0.004,1.311-0.006,2.619-0.006,3.925
			c0,0.106-0.035,0.142-0.142,0.142c-0.353-0.007-0.706-0.007-1.06,0c-0.113,0.001-0.148-0.035-0.148-0.148
			C21.992,23.318,21.988,22.664,21.988,22.01L21.988,22.01z"/>
		<path fill="#004CD2" d="M28.459,21.051c-0.783,0-1.565,0-2.35,0c-0.209,0-0.213-0.002-0.197-0.215
			c0.026-0.301,0.094-0.594,0.351-0.784c0.102-0.076,0.241-0.138,0.363-0.138c1.409-0.01,2.815-0.006,4.224-0.01
			c0.12,0,0.156,0.048,0.153,0.163c-0.006,0.276-0.007,0.554,0.001,0.83c0.003,0.12-0.036,0.155-0.154,0.155
			C30.053,21.049,29.255,21.051,28.459,21.051z"/>
		<path fill="#004CD2" d="M33.469,22.002c0-0.635,0-1.271,0-1.906c0-0.188,0.002-0.189,0.193-0.189c0.325,0,0.648,0.004,0.975-0.002
			c0.125-0.003,0.177,0.029,0.177,0.166c-0.005,1.3-0.005,2.6-0.002,3.896c0,0.107-0.024,0.153-0.145,0.152
			c-0.347-0.009-0.696-0.009-1.045,0c-0.119,0.001-0.155-0.038-0.153-0.156c0.004-0.652,0.002-1.309,0.002-1.961H33.469z"/>
		<path fill="#004CD2" d="M41.205,22.904c0.002,0.115-0.035,0.15-0.146,0.148c-0.594-0.004-1.186-0.002-1.776-0.002
			c-0.594,0-1.186-0.002-1.778,0.004c-0.124,0.002-0.163-0.033-0.161-0.161c0.008-0.354,0.006-0.707,0-1.062
			c-0.002-0.105,0.031-0.14,0.138-0.14c1.194,0.003,2.388,0.003,3.582,0c0.117,0,0.144,0.044,0.142,0.153
			C41.201,22.195,41.199,22.552,41.205,22.904z"/>
	</g>
	
		<line fill="none" stroke="#FFD611" stroke-linecap="round" stroke-linejoin="round" stroke-miterlimit="10" x1="20.27" y1="27.442" x2="42.219" y2="27.442"/>
	<g>
		<g>
			<path fill="#004CD2" d="M41.522,32.43H32.4c-0.229,0-0.414,0.243-0.414,0.544c0,0.303,0.186,0.546,0.414,0.546h9.122
				c0.229,0,0.414-0.243,0.414-0.546C41.937,32.673,41.751,32.43,41.522,32.43z"/>
		</g>
	</g>
	<g>
		<g>
			<path fill="#004CD2" d="M41.56,35.156H28.066c-0.208,0-0.375,0.244-0.375,0.546c0,0.3,0.167,0.546,0.375,0.546H41.56
				c0.209,0,0.377-0.246,0.377-0.546C41.937,35.4,41.769,35.156,41.56,35.156z"/>
		</g>
	</g>
	<g>
		<g>
			<path fill="#004CD2" d="M41.56,37.679H28.066c-0.208,0-0.375,0.241-0.375,0.546c0,0.3,0.167,0.542,0.375,0.542H41.56
				c0.209,0,0.377-0.242,0.377-0.542C41.937,37.92,41.769,37.679,41.56,37.679z"/>
		</g>
	</g>
	<g>
		<g>
			<path fill="#004CD2" d="M41.56,40.34H28.066c-0.208,0-0.375,0.246-0.375,0.547c0,0.3,0.167,0.546,0.375,0.546H41.56
				c0.209,0,0.377-0.246,0.377-0.546C41.937,40.586,41.769,40.34,41.56,40.34z"/>
		</g>
	</g>
	<g>
		<g>
			<path fill="#004CD2" d="M41.56,43.021H28.066c-0.208,0-0.375,0.245-0.375,0.545c0,0.303,0.167,0.547,0.375,0.547H41.56
				c0.209,0,0.377-0.244,0.377-0.547C41.937,43.267,41.769,43.021,41.56,43.021z"/>
		</g>
	</g>
</g>
</svg>
