<?xml version="1.0" encoding="utf-8"?>
<!-- Generator: Adobe Illustrator 16.0.0, SVG Export Plug-In . SVG Version: 6.00 Build 0)  -->
<!DOCTYPE svg PUBLIC "-//W3C//DTD SVG 1.0//EN" "http://www.w3.org/TR/2001/REC-SVG-20010904/DTD/svg10.dtd">
<svg version="1.0" id="Layer_1" xmlns="http://www.w3.org/2000/svg" xmlns:xlink="http://www.w3.org/1999/xlink" x="0px" y="0px"
	 width="61.954px" height="61.95px" viewBox="0 0 61.954 61.95" enable-background="new 0 0 61.954 61.95" xml:space="preserve">
<g>
	<g>
		<g>
			<path fill="#004CD2" d="M20.779,16.808h13.14v6.343h6.344v7.7h0.906v-8.341l-6.61-6.61H19.872v27.187h14.047v-0.906h-13.14
				V16.808z M34.821,17.446l4.798,4.797h-4.798V17.446z M34.821,17.446"/>
			<path fill="#004CD2" d="M37.319,32.217v10.871h10.869V32.217H37.319z M47.281,42.179h-4.069v-5.701l1.938,1.949l0.643-0.644
				l-3.038-3.037l-3.039,3.037l0.642,0.644l1.947-1.949v5.701h-4.078v-9.066h9.056V42.179z"/>
			<polygon fill="#FFD60E" points="47.281,33.113 47.281,42.179 43.212,42.179 43.212,36.478 45.149,38.427 45.792,37.783 
				42.754,34.746 39.715,37.783 40.356,38.427 42.304,36.478 42.304,42.179 38.226,42.179 38.226,33.113 			"/>
		</g>
	</g>
	<g>
		<g>
			<g>
				<path fill="#004CD2" d="M28.868,30.22h-1.459l-1.266-1.266c-0.042-0.042-0.098-0.065-0.158-0.065h-2.658
					c-0.124,0-0.221,0.099-0.221,0.223v4.654c0,0.612,0.496,1.108,1.108,1.11h1.329c0.123,0,0.223,0.096,0.223,0.218v2.44
					c0,0.367,0.297,0.665,0.663,0.665h0.444c0.367,0,0.666-0.298,0.666-0.665v-2.882c-0.002-0.857-0.696-1.55-1.555-1.552h-0.219
					v-1.902l0.729,0.729c0.043,0.043,0.098,0.065,0.156,0.065h2.217c0.489,0,0.887-0.398,0.887-0.888
					C29.755,30.618,29.357,30.22,28.868,30.22z M28.868,31.549h-2.123l-1.043-1.043c-0.089-0.086-0.228-0.086-0.316,0
					c-0.04,0.041-0.064,0.098-0.064,0.156v2.662c0,0.122,0.1,0.221,0.223,0.221h0.441c0.613,0,1.109,0.496,1.109,1.107v2.882
					c0,0.121-0.099,0.221-0.221,0.221H26.43c-0.12,0-0.221-0.1-0.221-0.221v-2.44c0-0.364-0.299-0.664-0.665-0.664h-1.329
					c-0.369,0-0.664-0.298-0.664-0.665v-4.433h2.346l1.263,1.265c0.044,0.042,0.099,0.065,0.156,0.065h1.553
					c0.246,0,0.443,0.2,0.443,0.442C29.312,31.35,29.114,31.549,28.868,31.549z"/>
			</g>
		</g>
		<g>
			<g>
				<path fill="#004CD2" d="M36.184,28.894h-2.661c-0.059,0-0.113,0.021-0.155,0.059l-1.265,1.269h-1.462
					c-0.487,0-0.884,0.396-0.884,0.884c0,0.49,0.396,0.888,0.884,0.888h2.219c0.057,0,0.114-0.022,0.155-0.065l0.729-0.729v1.904
					h-0.221c-0.856,0-1.552,0.69-1.552,1.551v2.883c0,0.367,0.301,0.663,0.667,0.663h0.442c0.366,0,0.663-0.296,0.663-0.663v-2.439
					c0-0.123,0.104-0.221,0.225-0.221h1.33c0.612,0,1.106-0.499,1.106-1.11v-4.652C36.404,28.99,36.305,28.894,36.184,28.894z
					 M35.961,33.766c0,0.367-0.295,0.667-0.663,0.667h-1.33c-0.371,0-0.667,0.297-0.667,0.664v2.439c0,0.121-0.099,0.22-0.221,0.22
					h-0.442c-0.121,0-0.221-0.099-0.221-0.22v-2.883c0-0.615,0.494-1.108,1.105-1.108h0.445c0.124,0,0.222-0.097,0.222-0.221v-2.662
					c0-0.12-0.098-0.221-0.222-0.221c-0.061,0-0.117,0.024-0.159,0.067l-1.044,1.042h-2.124c-0.243,0-0.442-0.201-0.442-0.446
					c0-0.244,0.199-0.442,0.442-0.442h1.552c0.062,0,0.117-0.021,0.158-0.065l1.266-1.265h2.345V33.766z"/>
				<path fill="#FFD611" d="M35.961,29.333v4.433c0,0.367-0.295,0.667-0.663,0.667h-1.33c-0.371,0-0.667,0.297-0.667,0.664v2.439
					c0,0.121-0.099,0.22-0.221,0.22h-0.442c-0.121,0-0.221-0.099-0.221-0.22v-2.883c0-0.615,0.494-1.108,1.105-1.108h0.445
					c0.124,0,0.222-0.097,0.222-0.221v-2.662c0-0.12-0.098-0.221-0.222-0.221c-0.061,0-0.117,0.024-0.159,0.067l-1.044,1.042h-2.124
					c-0.243,0-0.442-0.201-0.442-0.446c0-0.244,0.199-0.442,0.442-0.442h1.552c0.062,0,0.117-0.021,0.158-0.065l1.266-1.265H35.961z
					"/>
			</g>
		</g>
		<g>
			<g>
				<path fill="#004CD2" d="M32.416,32.436h-5.321c-0.122,0-0.221,0.099-0.221,0.221c0,0.124,0.099,0.223,0.221,0.223h2.439v4.875
					h-0.666c-0.122,0-0.221,0.1-0.221,0.223c0,0.122,0.099,0.221,0.221,0.221h1.774c0.121,0,0.222-0.1,0.222-0.221
					c0-0.124-0.101-0.223-0.222-0.223h-0.665V32.88h2.438c0.122,0,0.22-0.1,0.22-0.223C32.636,32.535,32.538,32.436,32.416,32.436z"
					/>
			</g>
		</g>
		<g>
			<g>
				<path fill="#004CD2" d="M34.853,25.788h-1.107c-0.123,0-0.222,0.099-0.222,0.221v1.107c0,0.735,0.597,1.331,1.329,1.331
					c0.734,0,1.331-0.595,1.331-1.331C36.184,26.383,35.587,25.788,34.853,25.788z M34.418,27.892
					c-0.279-0.158-0.453-0.455-0.452-0.776v-0.215c0.609,0.03,1.189,0.26,1.656,0.649C35.383,27.978,34.845,28.13,34.418,27.892z
					 M33.966,26.459V26.23h0.887c0.475,0.002,0.862,0.376,0.883,0.85C35.222,26.702,34.605,26.485,33.966,26.459z"/>
			</g>
		</g>
		<g>
			<g>
				<path fill="#004CD2" d="M25.767,25.788h-1.109c-0.734,0-1.33,0.593-1.33,1.328s0.596,1.331,1.33,1.331
					c0.733,0,1.328-0.595,1.328-1.331v-1.107C25.985,25.886,25.889,25.788,25.767,25.788z M25.544,27.116
					c0,0.49-0.397,0.886-0.887,0.886c-0.32,0-0.613-0.173-0.77-0.452c0.467-0.389,1.049-0.619,1.656-0.649V27.116z M25.544,26.459
					c-0.639,0.025-1.255,0.242-1.769,0.62c0.019-0.473,0.408-0.848,0.882-0.85h0.887V26.459z"/>
			</g>
		</g>
	</g>
</g>
</svg>
