<?xml version="1.0" encoding="utf-8"?>
<!-- Generator: Adobe Illustrator 16.0.0, SVG Export Plug-In . SVG Version: 6.00 Build 0)  -->
<!DOCTYPE svg PUBLIC "-//W3C//DTD SVG 1.0//EN" "http://www.w3.org/TR/2001/REC-SVG-20010904/DTD/svg10.dtd">
<svg version="1.0" id="Layer_1" xmlns="http://www.w3.org/2000/svg" xmlns:xlink="http://www.w3.org/1999/xlink" x="0px" y="0px"
	 width="61.954px" height="61.951px" viewBox="0 0 61.954 61.951" enable-background="new 0 0 61.954 61.951" xml:space="preserve">
<g>
	<g>
		<g>
			<path fill="#004CD2" d="M19.971,18.803h13.14v6.343h6.344v7.701h0.906v-8.341l-6.61-6.611H19.064v27.187H33.11v-0.907h-13.14
				V18.803z M34.014,19.442l4.798,4.796h-4.798V19.442z M34.014,19.442"/>
			<path fill="#004CD2" d="M36.511,34.21v10.871h10.871V34.21H36.511z M46.474,44.175h-4.069v-5.699l1.937,1.947l0.644-0.643
				l-3.039-3.04l-3.038,3.04l0.643,0.643l1.948-1.947v5.699h-4.08v-9.065h9.056V44.175z"/>
			<polygon fill="#FFD60E" points="46.474,35.109 46.474,44.175 42.404,44.175 42.404,38.476 44.341,40.423 44.984,39.78 
				41.945,36.74 38.907,39.78 39.55,40.423 41.498,38.476 41.498,44.175 37.418,44.175 37.418,35.109 			"/>
		</g>
	</g>
	<g>
		<polygon fill="#FFD611" points="27.56,31.779 24.49,33.017 23.644,34.161 23.644,39.475 33.583,39.475 33.583,34.409 
			32.851,33.061 29.712,31.779 28.613,33.017 		"/>
		<path fill="#004CD2" d="M32.607,32.666c0-0.005,0-0.005,0-0.005l-2.699-1.044v-0.633c0.428-0.329,0.727-0.824,0.803-1.384
			c0.21-0.016,0.407-0.1,0.572-0.237c0.208-0.182,0.33-0.445,0.33-0.726c0-0.231-0.083-0.452-0.231-0.627v-0.834
			c0-1.54-1.254-2.794-2.792-2.794c-1.546,0-2.798,1.255-2.798,2.794v0.856c-0.15,0.171-0.232,0.384-0.232,0.605
			c0,0.281,0.121,0.544,0.331,0.726c0.165,0.137,0.362,0.221,0.576,0.237c0.071,0.571,0.381,1.083,0.846,1.417v0.6l-2.691,1.044
			c-0.007,0-0.007,0-0.007,0.005c-0.049,0.016-1.193,0.499-1.193,1.836v4.694c0,0.319,0.26,0.578,0.578,0.578h2.271
			c0.124,0,0.225-0.1,0.225-0.225c0-0.128-0.101-0.227-0.225-0.227h-0.605v-4.443c0-0.118-0.105-0.224-0.227-0.224
			c-0.126,0-0.225,0.106-0.225,0.224v4.443h-1.215c-0.066,0-0.126-0.054-0.126-0.126v-4.694c0-1.018,0.857-1.396,0.913-1.418
			l1.615-0.634l0.715,1.43c0.066,0.131,0.203,0.215,0.352,0.215c0.143,0,0.22-0.068,0.324-0.137l0.182,0.274l-0.677,3.979
			c0,0.006,0,0.006,0,0.006c-0.016,0.119,0.022,0.24,0.101,0.323l0.703,0.781h-0.902c-0.119,0-0.226,0.099-0.226,0.227
			c0,0.125,0.106,0.225,0.226,0.225h6.026c0.317,0,0.575-0.259,0.575-0.578v-4.694C33.8,33.165,32.656,32.681,32.607,32.666z
			 M30.399,32.291l-0.666,1.326c-0.018-0.011-0.368-0.257-0.798-0.567c0.187-0.231-0.034,0.039,0.819-1.012L30.399,32.291z
			 M29.062,33.693l-0.171,0.259h-0.561l-0.17-0.259l0.451-0.318L29.062,33.693z M27.766,31.691v-0.422
			c0.269,0.11,0.565,0.16,0.852,0.16c0.291,0,0.582-0.059,0.841-0.175v0.438l-0.846,1.046L27.766,31.691z M31.16,28.636
			c0,0.148-0.059,0.285-0.175,0.385c-0.071,0.06-0.158,0.104-0.259,0.121v-1.005C30.985,28.175,31.16,28.389,31.16,28.636z
			 M26.444,29.142c-0.258-0.044-0.434-0.264-0.434-0.506c0-0.242,0.198-0.434,0.434-0.49V29.142z M26.462,27.684
			c-0.077,0.011-0.154,0.028-0.222,0.05v-0.56c0-1.292,1.057-2.342,2.35-2.342c1.291,0,2.341,1.05,2.341,2.342v0.544
			c-0.065-0.023-0.131-0.034-0.204-0.04c0-0.219,0-0.175-0.708-0.938c-0.132-0.143-0.347-0.172-0.512-0.068
			c-0.785,0.518-1.747,0.777-2.629,0.709C26.682,27.366,26.505,27.498,26.462,27.684z M26.896,29.317v-1.478
			c0.974,0.054,1.996-0.237,2.82-0.765c0.324,0.353,0.507,0.534,0.562,0.604v1.639c0,0.912-0.747,1.661-1.66,1.661
			C27.589,30.979,26.896,30.18,26.896,29.317z M27.491,33.616l-0.665-1.326l0.642-0.247l0.812,1.006
			C27.869,33.346,27.528,33.589,27.491,33.616z M27.748,38.262l0.648-3.854h0.424l0.654,3.854l-0.862,0.949L27.748,38.262z
			 M33.35,39.196c0,0.072-0.057,0.126-0.125,0.126h-1.211v-4.443c0-0.118-0.104-0.224-0.225-0.224c-0.126,0-0.226,0.106-0.226,0.224
			v4.443h-2.441l0.704-0.781c0.076-0.083,0.116-0.204,0.098-0.323c0,0,0,0,0-0.006l-0.675-3.979l0.182-0.274
			c0.104,0.069,0.181,0.137,0.324,0.137c0.147,0,0.285-0.084,0.352-0.215l0.715-1.43l1.617,0.634
			c0.06,0.022,0.911,0.406,0.911,1.418V39.196z"/>
		<polygon fill="#F4F3F3" points="29.062,33.693 28.892,33.952 28.331,33.952 28.161,33.693 28.612,33.375 		"/>
		<polygon fill="#F4F3F3" points="29.475,38.262 28.612,39.211 27.748,38.262 28.396,34.409 28.82,34.409 		"/>
	</g>
</g>
</svg>
