<?xml version="1.0" encoding="utf-8"?>
<!-- Generator: Adobe Illustrator 16.0.0, SVG Export Plug-In . SVG Version: 6.00 Build 0)  -->
<!DOCTYPE svg PUBLIC "-//W3C//DTD SVG 1.0//EN" "http://www.w3.org/TR/2001/REC-SVG-20010904/DTD/svg10.dtd">
<svg version="1.0" id="Layer_1" xmlns="http://www.w3.org/2000/svg" xmlns:xlink="http://www.w3.org/1999/xlink" x="0px" y="0px"
	 width="61.955px" height="61.95px" viewBox="0 0 61.955 61.95" enable-background="new 0 0 61.955 61.95" xml:space="preserve">
<g>
	<g>
		<path fill="#004CD2" d="M22.996,40.989l-4.128-4.125c-0.032-0.03-0.846-0.753-0.846-2.173v-7.684c0-0.565,0.46-1.024,1.026-1.024
			c0.564,0,1.023,0.458,1.023,1.024v4.055c0,0.283,0.229,0.512,0.512,0.512s0.514-0.229,0.514-0.512v-4.055
			c0-1.13-0.921-2.05-2.049-2.05c-1.131,0-2.05,0.92-2.05,2.05v7.684c0,1.913,1.157,2.912,1.176,2.923l3.946,3.947v3.118
			c0,0.283,0.229,0.512,0.512,0.512c0.284,0,0.513-0.229,0.513-0.512v-3.222h-0.021C23.161,41.293,23.123,41.117,22.996,40.989z"/>
		<path fill="#004CD2" d="M27.095,36.378l-3.588-3.586c-0.384-0.387-0.88-0.611-1.396-0.63c-0.539-0.023-1.05,0.178-1.438,0.568
			c-0.391,0.389-0.592,0.9-0.57,1.439c0.021,0.515,0.245,1.012,0.633,1.396l2.561,2.562c0.199,0.202,0.523,0.202,0.725,0
			c0.199-0.2,0.199-0.524,0-0.724l-2.563-2.563c-0.203-0.201-0.319-0.456-0.331-0.712c-0.01-0.252,0.084-0.486,0.27-0.673
			c0.188-0.186,0.422-0.279,0.674-0.268c0.257,0.009,0.512,0.127,0.714,0.331l3.61,3.608c0.033,0.033,0.85,0.776,0.85,2.177v5.378
			c0,0.283,0.229,0.512,0.512,0.512c0.28,0,0.514-0.229,0.514-0.512v-5.378C28.27,37.417,27.116,36.396,27.095,36.378z"/>
		<path fill="#004CD2" d="M42.592,34.092c0-0.51-0.201-0.994-0.572-1.361c-0.389-0.39-0.904-0.591-1.438-0.568
			c-0.514,0.019-1.012,0.243-1.396,0.63l-3.56,3.562c-0.05,0.042-1.201,1.062-1.201,2.947v5.378c0,0.283,0.229,0.512,0.511,0.512
			c0.284,0,0.513-0.229,0.513-0.512v-5.378c0-1.401,0.816-2.146,0.873-2.199l3.589-3.586c0.203-0.204,0.456-0.321,0.714-0.331
			c0.259-0.011,0.484,0.083,0.673,0.268c0.177,0.177,0.271,0.397,0.271,0.638c0,0.269-0.119,0.536-0.332,0.75l-2.562,2.562
			c-0.201,0.2-0.201,0.524,0,0.724c0.196,0.202,0.523,0.202,0.723,0l2.562-2.56C42.367,35.159,42.592,34.635,42.592,34.092z"/>
		<path fill="#004CD2" d="M43.646,24.958c-1.131,0-2.049,0.92-2.049,2.05v4.055c0,0.283,0.229,0.512,0.512,0.512
			c0.283,0,0.513-0.229,0.513-0.512v-4.055c0-0.565,0.46-1.024,1.024-1.024s1.025,0.458,1.025,1.024v7.684
			c0,1.419-0.812,2.143-0.875,2.199l-4.098,4.099c-0.069,0.067-0.106,0.149-0.127,0.235h-0.016v0.09
			c-0.002,0.026-0.002,0.049,0,0.076v3.29c0,0.283,0.227,0.512,0.512,0.512c0.283,0,0.512-0.229,0.512-0.512v-3.124l3.908-3.912
			c0.049-0.042,1.206-1.04,1.206-2.953v-7.684C45.694,25.877,44.776,24.958,43.646,24.958z"/>
	</g>
	<path fill="#FFD712" d="M31.149,33.121c0,0,8.153-3.993,8.451-11.394c0,0-2.046-7.567-8.451-3.1c0,0-7.235-5.328-8.424,4.765
		C22.726,23.392,24.318,29.581,31.149,33.121z"/>
	<path fill="#004CD2" d="M30.911,33.597c0.073,0.041,0.155,0.061,0.238,0.061c0.082,0,0.163-0.02,0.237-0.061
		c5.657-3.086,8.709-8.163,8.709-11.372c0-3.015-2.45-5.467-5.467-5.467c-2.119,0-4.065,1.239-4.958,3.159
		c-0.116,0.249-0.01,0.546,0.239,0.662c0.249,0.116,0.545,0.008,0.659-0.241c0.733-1.571,2.327-2.586,4.06-2.586
		c2.466,0,4.473,2.007,4.473,4.474c0,2.917-2.969,7.556-7.952,10.367c-4.984-2.812-7.955-7.45-7.955-10.367
		c0-2.467,2.008-4.474,4.476-4.474c0.621,0,1.225,0.125,1.791,0.375c0.25,0.108,0.543-0.006,0.655-0.258
		c0.108-0.251-0.006-0.544-0.257-0.654c-0.693-0.302-1.429-0.456-2.189-0.456c-3.015,0-5.469,2.453-5.469,5.467
		C22.201,25.435,25.254,30.511,30.911,33.597z"/>
	<g>
		<polygon fill="#004CD2" points="25.5,22.748 27.075,22.748 27.075,27.162 28.148,27.162 28.148,22.748 29.719,22.748 
			29.719,21.851 25.5,21.851 		"/>
		<polygon fill="#004CD2" points="32.967,25.476 32.004,21.851 30.398,21.851 30.398,27.162 31.394,27.162 31.394,22.98 
			32.446,27.162 33.477,27.162 34.533,22.98 34.533,27.162 35.531,27.162 35.531,21.851 33.92,21.851 		"/>
	</g>
</g>
</svg>
